<?xml version="1.0" encoding="utf-8" ?>
<svg xmlns="http://www.w3.org/2000/svg" xmlns:xlink="http://www.w3.org/1999/xlink" width="1024" height="1024">
	<path fill="#386741" d="M695.096 240.582C695.181 239.623 695.137 239.791 695.28 239.035C704.199 191.951 724.942 146.919 759.576 113.395C765.006 108.139 770.615 102.352 776.867 98.0859C779.776 96.101 783.47 94.0437 787.112 94.8638C789.835 95.4772 791.887 97.5324 793.305 99.8406C797.103 106.024 798.5 114.465 800.254 121.463C802.047 128.617 803.944 135.773 805.135 143.058C810.291 174.61 808.151 209.619 801.01 240.73Q813.022 223.689 827.098 208.309C838.388 196.087 850.858 185.404 863.519 174.648C874.424 165.385 885.79 155.399 898.307 148.355C901.714 146.437 905.01 145.134 908.766 144.063Q910.079 147.261 910.686 150.665C912.054 158.605 911.512 167.022 911.479 175.049C911.27 225.347 892.795 267.673 864.069 308.102C887.928 301.44 952.497 288.876 974.777 294.809C978.724 295.86 982.503 297.383 984.526 301.15C987.416 306.533 986.341 312.852 984.592 318.408C982.338 325.573 978.239 331.821 973.823 337.827C955.918 362.176 930.929 376.526 904.747 390.266Q909.732 393.84 914.525 397.669C920.18 402.236 925.193 407.393 930.286 412.564C955.832 438.507 969.372 463.764 978.668 498.929C982.031 511.653 984.744 524.345 986.158 537.441C994.838 617.857 973.88 701.254 922.771 764.63C917.474 771.2 911.691 777.172 905.968 783.354C901.72 787.941 897.661 792.745 893.032 796.957C876.208 812.263 857.074 824.642 837.874 836.678Q831.731 840.446 825.504 844.073Q819.276 847.7 812.968 851.184Q806.659 854.668 800.273 858.007Q793.886 861.346 787.425 864.539Q780.964 867.732 774.432 870.776Q767.9 873.82 761.3 876.715Q754.701 879.609 748.036 882.353Q741.372 885.096 734.647 887.686Q727.922 890.276 721.14 892.713Q714.357 895.149 707.521 897.43Q700.685 899.711 693.799 901.835Q686.912 903.96 679.979 905.926Q673.046 907.893 666.07 909.701Q659.094 911.509 652.078 913.157Q645.062 914.806 638.011 916.293Q630.959 917.781 623.876 919.108C600.849 923.506 577.65 926.393 554.358 928.841C453.303 939.464 332.503 933.923 237.342 896.928C203.146 883.635 166.271 862.557 137.804 839.407C94.427 804.132 68.0582 764.048 49.8729 711.408C42.2842 689.441 36.5961 666.452 34.2584 643.298C32.8134 628.986 31.904 614.279 32.6357 599.895Q32.7593 597.722 32.9258 595.551Q33.0923 593.38 33.3017 591.213Q33.5111 589.046 33.7634 586.884Q34.0156 584.722 34.3105 582.565Q34.6055 580.408 34.9431 578.257Q35.2806 576.106 35.6606 573.963Q36.0407 571.819 36.463 569.684Q36.8854 567.548 37.3499 565.421Q37.8144 563.294 38.3209 561.177Q38.8274 559.06 39.3757 556.953Q39.9239 554.846 40.5138 552.75Q41.1036 550.655 41.7348 548.571Q42.3659 546.488 43.0382 544.417Q43.7104 542.346 44.4235 540.289Q45.1366 538.233 45.8902 536.19Q46.6438 534.148 47.4377 532.121Q48.2316 530.094 49.0654 528.083Q49.8992 526.071 50.7726 524.077Q51.646 522.083 52.5587 520.107Q53.4714 518.13 54.423 516.172Q55.3746 514.214 56.3647 512.276Q57.3549 510.337 58.3832 508.418Q59.4115 506.499 60.4775 504.601Q61.5436 502.703 62.647 500.826Q63.7504 498.949 64.8906 497.095Q66.0309 495.24 67.2077 493.409Q68.3844 491.577 69.5972 489.769Q70.8099 487.961 72.0582 486.178Q73.3064 484.394 74.5897 482.636Q75.873 480.877 77.1908 479.144Q78.5087 477.411 79.8605 475.705Q81.2124 473.998 82.5977 472.319C161.799 375.561 295.637 329.077 415.503 309.128C443.863 304.408 472.323 301.832 500.903 299.007C497.512 294.191 493.737 289.638 490.45 284.749C478.813 267.439 469.048 246.353 467.006 225.496C466.452 219.829 465.639 199.463 469.224 195.485C470.9 193.625 473.338 193.225 475.732 193.167C484.03 192.966 492.813 195.643 500.758 197.895C536.272 207.965 574.942 226.587 601.677 252.47C587.476 208.181 587.629 164.695 606.212 121.642C608.735 115.795 614.78 100.772 621.399 98.9693C623.035 98.5236 624.91 99.1734 626.314 100.003C633.092 104.011 637.284 112.778 641.456 119.199C645.909 126.052 650.483 132.791 654.568 139.876C672.175 170.411 685.007 204.244 693.733 238.315L694.64 240.997L695.096 240.582Z"/>
	<path fill="#CA192C" d="M772.369 247.796C770.605 245.247 769.177 242.072 769.673 238.884C769.931 237.22 770.887 235.822 772.266 234.875C774.475 233.36 777.406 233.075 779.976 233.63C782.55 234.186 785.147 235.652 786.604 237.9C787.866 239.849 788.052 242.224 787.422 244.427C786.854 246.417 785.51 248.379 783.607 249.277C781.284 250.374 777.62 249.611 775.203 249.159Q771.469 255.731 767.525 262.179C773.225 263.705 778.577 265.285 783.859 267.981C785.596 269.219 787.294 270.343 789.189 271.324C793.269 273.033 797.195 274.931 801.14 276.928L806.046 270.944C805.308 267.624 804.903 263.61 806.932 260.625C807.841 259.287 809.167 258.482 810.742 258.198C813.218 257.751 816.006 258.709 817.996 260.163C819.485 261.25 820.823 262.85 821.146 264.714C821.417 266.275 820.883 267.798 819.888 268.987Q819.538 269.404 819.146 269.781Q818.753 270.158 818.322 270.49Q817.891 270.823 817.427 271.107Q816.963 271.392 816.471 271.624Q815.979 271.857 815.465 272.036Q814.951 272.214 814.42 272.336Q813.89 272.458 813.35 272.523Q812.809 272.587 812.265 272.593C810.82 272.598 809.313 272.274 807.921 271.922C806.573 274.022 805.155 276.1 803.977 278.301C813.671 282.386 820.599 287.36 828.195 294.587C830.306 292.758 832.449 290.99 834.297 288.888C833.763 285.886 832.393 281.711 834.453 279.053C835.855 277.243 838.808 275.976 841.061 275.868C843.043 275.772 844.898 276.468 846.357 277.809C848.241 279.54 849.244 282.073 849.196 284.618C849.158 286.579 848.478 288.59 846.951 289.892C845.236 291.353 842.852 291.623 840.688 291.357C839.232 291.179 837.809 290.622 836.434 290.127L830.43 296.827C837.277 308.018 838.616 313.971 838.554 326.999C830.947 333.536 824.136 340.915 816.533 347.438C785.389 374.159 750.504 394.976 710.47 405.308C696.836 395.532 684.446 384.333 672.008 373.116C664.238 366.108 656.309 359.212 648.707 352.024C644.905 348.43 632.313 331.969 629.782 330.652L629.919 329.933C629.83 329.684 629.744 329.435 629.653 329.187C628.207 325.271 625.52 321.469 623.645 317.698C620.559 311.492 612.164 292.017 615.912 285.34C616.316 284.62 616.408 284.547 616.876 283.963C618.247 283.867 618.812 284.168 619.887 285.041C624.811 289.042 631.927 300.154 636.584 305.617C646.609 317.377 657.472 328.43 667.276 340.379C678.906 354.552 689.276 369.496 701.822 382.936C701.41 382.026 670.428 337.589 669.316 336.438L667.487 334.811C666.928 334.5 666.912 334.511 666.31 334.056C659.973 329.261 624.304 286.293 619.889 278.754C619.007 277.248 618.805 275.671 618.615 273.963C623.602 268.656 628.458 264.602 634.741 260.888C634.592 259.405 634.56 257.098 633.792 255.786C631.967 252.666 625.535 250.688 625.148 247.172C624.983 245.673 625.731 243.456 626.753 242.387C627.957 241.127 629.779 240.535 631.479 240.412C633.537 240.262 636.299 240.761 637.796 242.32C638.763 243.327 639.293 244.402 639.254 245.825C639.184 248.387 637.228 250.364 635.542 252.059L635.065 252.532L636.573 258.946C644.048 255.352 651.724 252.494 659.532 249.724L659.659 246.945C660.753 247.275 661.179 247.293 662.26 246.919L662.594 247.51C666.333 247.96 683.35 244.944 689.025 244.48C690.466 245.638 691.232 245.967 693.048 246.218L693.57 246.293C688.241 279.782 694.849 317.722 702.097 350.454C704.476 361.199 706.548 371.895 711.175 381.958C709.588 374.89 708.317 368.338 709.09 361.044C710.557 346.001 713.087 331.142 714.801 316.137C716.738 307.26 717.887 298.178 719.285 289.202C721.61 274.278 723.989 259.396 727.132 244.617C732.411 246.801 738.682 247.648 744.264 248.966C743.904 252.013 743.455 255.073 743.308 258.138C744.187 258.865 744.144 258.91 745.274 258.875C745.68 256.02 746.308 253.202 746.89 250.379C752.784 253.351 759.022 256.494 764.243 260.569C766.916 256.3 769.504 251.939 772.369 247.796Z"/>
	<path fill="#CA192C" d="M634.741 260.888C638.172 280.912 647.374 298.858 657.345 316.299C660.724 322.209 665.089 328.436 667.487 334.811C666.928 334.5 666.912 334.511 666.31 334.056C659.973 329.261 624.304 286.293 619.889 278.754C619.007 277.248 618.805 275.671 618.615 273.963C623.602 268.656 628.458 264.602 634.741 260.888Z"/>
	<defs>
		<linearGradient id="gradient_0" gradientUnits="userSpaceOnUse" x1="752.12964" y1="303.93875" x2="746.35419" y2="301.66037">
			<stop offset="0" stop-color="#3C2C0F"/>
			<stop offset="1" stop-color="#202622"/>
		</linearGradient>
	</defs>
	<path fill="url(#gradient_0)" d="M772.369 247.796C770.605 245.247 769.177 242.072 769.673 238.884C769.931 237.22 770.887 235.822 772.266 234.875C774.475 233.36 777.406 233.075 779.976 233.63C782.55 234.186 785.147 235.652 786.604 237.9C787.866 239.849 788.052 242.224 787.422 244.427C786.854 246.417 785.51 248.379 783.607 249.277C781.284 250.374 777.62 249.611 775.203 249.159Q771.469 255.731 767.525 262.179C763.292 267.584 760.74 275.33 757.956 281.577Q742.947 314.495 731.29 348.743C729.189 355.087 726.691 361.318 724.636 367.649C723.562 370.957 722.924 375.553 721.297 378.526C720.405 376.219 722.504 371.305 723.075 368.856C729.2 342.573 739.12 317.013 749.94 292.336C754.603 281.7 760.024 271.395 764.243 260.569C766.916 256.3 769.504 251.939 772.369 247.796Z"/>
	<path fill="#CA192C" d="M774.97 235.008Q775.878 234.96 776.788 234.967C779.65 235.008 782.539 236.146 784.499 238.276C785.616 239.491 786.223 241.043 786.042 242.701C785.758 245.3 783.815 246.741 781.875 248.207C781.003 248.3 780.116 248.399 779.239 248.389C776.825 248.361 774.357 247.097 772.778 245.301Q772.572 245.07 772.39 244.819Q772.208 244.567 772.052 244.299Q771.896 244.031 771.768 243.749Q771.64 243.466 771.542 243.172Q771.443 242.878 771.375 242.575Q771.307 242.273 771.269 241.965Q771.232 241.657 771.226 241.347Q771.22 241.037 771.245 240.728C771.472 238.075 773.033 236.63 774.97 235.008Z"/>
	<path fill="#2A281E" d="M834.297 288.888C833.763 285.886 832.393 281.711 834.453 279.053C835.855 277.243 838.808 275.976 841.061 275.868C843.043 275.772 844.898 276.468 846.357 277.809C848.241 279.54 849.244 282.073 849.196 284.618C849.158 286.579 848.478 288.59 846.951 289.892C845.236 291.353 842.852 291.623 840.688 291.357C839.232 291.179 837.809 290.622 836.434 290.127L830.43 296.827C814.729 311.544 799.159 326.77 782.645 340.571C776.143 346.869 768.735 352.773 761.655 358.414L761.407 358.063C760.977 358.964 761.295 358.714 760.661 359.02L761.898 358.155L760.932 358.464C767.025 351.632 774.138 345.003 780.959 338.888C796.416 323.846 812.429 309.306 828.195 294.587C830.306 292.758 832.449 290.99 834.297 288.888Z"/>
	<path fill="#CA192C" d="M838.776 277.982C839.618 277.942 840.457 277.901 841.298 277.987C843.454 278.208 845.597 279.474 846.853 281.246C847.887 282.704 848.208 284.475 847.689 286.205C847.018 288.44 845.388 289.286 843.51 290.399C841.205 290.441 838.177 290.274 836.361 288.665Q836.187 288.512 836.029 288.342Q835.872 288.172 835.733 287.987Q835.595 287.801 835.476 287.602Q835.357 287.403 835.26 287.193Q835.163 286.982 835.089 286.763Q835.014 286.544 834.963 286.318Q834.912 286.092 834.884 285.862Q834.857 285.632 834.854 285.4C834.807 282.746 836.948 279.737 838.776 277.982Z"/>
	<path fill="#2A281E" d="M806.046 270.944C805.308 267.624 804.903 263.61 806.932 260.625C807.841 259.287 809.167 258.482 810.742 258.198C813.218 257.751 816.006 258.709 817.996 260.163C819.485 261.25 820.823 262.85 821.146 264.714C821.417 266.275 820.883 267.798 819.888 268.987Q819.538 269.404 819.146 269.781Q818.753 270.158 818.322 270.49Q817.891 270.823 817.427 271.107Q816.963 271.392 816.471 271.624Q815.979 271.857 815.465 272.036Q814.951 272.214 814.42 272.336Q813.89 272.458 813.35 272.523Q812.809 272.587 812.265 272.593C810.82 272.598 809.313 272.274 807.921 271.922C806.573 274.022 805.155 276.1 803.977 278.301C802.898 279.717 801.823 281.472 800.546 282.692C785.303 303.643 769.799 324.546 755.258 345.986C747.569 357.322 741.126 369.436 733.03 380.495C734.951 374.751 739.254 369.789 742.32 364.605C749.578 352.334 756.402 340.017 764.493 328.235C775.166 312.693 787.1 298.027 797.723 282.455C798.92 280.645 800.034 278.795 801.14 276.928L806.046 270.944Z"/>
	<path fill="#CA192C" d="M809.918 259.932C810.941 259.863 811.985 259.782 813.01 259.834C815.155 259.943 817.634 261.056 818.976 262.764C819.661 263.637 819.941 264.688 819.733 265.785C819.343 267.847 817.645 269.028 816.1 270.225Q814.829 270.592 813.528 270.834C811.683 271.166 809.521 270.935 808.04 269.651C807.017 268.763 806.452 267.754 806.403 266.378C806.305 263.606 808.133 261.79 809.918 259.932Z"/>
	<path fill="#2A281E" d="M634.741 260.888C634.592 259.405 634.56 257.098 633.792 255.786C631.967 252.666 625.535 250.688 625.148 247.172C624.983 245.673 625.731 243.456 626.753 242.387C627.957 241.127 629.779 240.535 631.479 240.412C633.537 240.262 636.299 240.761 637.796 242.32C638.763 243.327 639.293 244.402 639.254 245.825C639.184 248.387 637.228 250.364 635.542 252.059L635.065 252.532L636.573 258.946C641.277 278.668 648.609 296.618 657.829 314.666C661.56 321.97 666.149 328.864 669.316 336.438L667.487 334.811C665.089 328.436 660.724 322.209 657.345 316.299C647.374 298.858 638.172 280.912 634.741 260.888Z"/>
	<path fill="#CA192C" d="M630.441 241.552C630.582 241.545 630.722 241.534 630.863 241.531C631.095 241.526 631.327 241.53 631.558 241.527C633.512 241.507 635.035 241.821 636.4 243.362C637.269 244.343 637.617 245.653 637.451 246.942C637.17 249.138 635.75 250.19 634.144 251.482C633.477 251.512 633.193 251.535 632.485 251.512C630.743 251.456 628.939 250.908 627.856 249.43C627.033 248.306 626.695 247.23 626.96 245.835C627.374 243.651 628.722 242.706 630.441 241.552Z"/>
	<path fill="#2A281E" d="M659.659 246.945C660.753 247.275 661.179 247.293 662.26 246.919L662.594 247.51C662.243 257.841 665.032 267.586 667.209 277.58C671.463 297.116 676.158 316.427 682.678 335.358C685.606 343.859 689.783 352.024 691.934 360.774C678.776 335.91 670.646 307.348 665.014 279.863Q663.019 270.094 661.312 260.271C660.747 256.944 660.541 252.891 659.532 249.724L659.659 246.945Z"/>
	<path fill="#3E1C12" d="M739.152 301.93C741.346 287.443 740.402 272.517 743.308 258.138C744.187 258.865 744.144 258.91 745.274 258.875C744.235 270.305 743.673 291.766 739.152 301.93Z"/>
	<path fill="#2A281E" d="M781.248 282.885C781.488 283.132 781.67 283.642 781.825 283.955C781.445 292.196 776.858 300.827 773.598 308.305L773.234 307.788C773.791 300.098 777.181 289.435 781.248 282.885Z"/>
	<path fill="#FAF9F4" d="M621.051 371.993C612.12 368.829 604.179 363.88 595.899 359.356C561.557 340.592 529.839 318.631 505.393 287.624C499.28 279.871 493.623 271.567 489.089 262.794C482.219 249.501 470.624 216.774 472.704 202.193C472.851 201.161 473.272 199.252 474.243 198.69C476.844 197.183 482.576 198.971 485.408 199.647C522.307 208.453 554.907 227.298 584.811 250.193C597.051 259.565 608.293 268.201 616.5 281.521C614.397 285.13 613.93 289.06 614.035 293.172C614.272 302.465 623.32 323.669 629.919 329.933L629.782 330.652C626.327 329.972 589.934 292.577 579.932 287.39C578.613 286.706 577.729 286.484 576.332 286.984C574.899 288.427 574.466 289.735 574.504 291.781C574.576 295.701 576.112 299.717 577.299 303.428C582.843 320.765 591.169 337.802 602.377 352.195C607.988 359.401 614.631 365.54 621.051 371.993Z"/>
	<path fill="#FAF9F4" d="M784.216 101.427L785.67 101.052C789.663 103.542 794.582 125.031 795.777 130.175C803.938 165.3 804.363 209.74 793.664 244.338C791.137 252.509 787.454 260.239 783.859 267.981C778.577 265.285 773.225 263.705 767.525 262.179Q771.469 255.731 775.203 249.159C777.62 249.611 781.284 250.374 783.607 249.277C785.51 248.379 786.854 246.417 787.422 244.427C788.052 242.224 787.866 239.849 786.604 237.9C785.147 235.652 782.55 234.186 779.976 233.63C777.406 233.075 774.475 233.36 772.266 234.875C770.887 235.822 769.931 237.22 769.673 238.884C769.177 242.072 770.605 245.247 772.369 247.796C769.504 251.939 766.916 256.3 764.243 260.569C759.022 256.494 752.784 253.351 746.89 250.379C746.308 253.202 745.68 256.02 745.274 258.875C744.144 258.91 744.187 258.865 743.308 258.138C743.455 255.073 743.904 252.013 744.264 248.966C738.682 247.648 732.411 246.801 727.132 244.617C723.989 259.396 721.61 274.278 719.285 289.202C717.887 298.178 716.738 307.26 714.801 316.137C713.45 315.002 713.638 313.385 713.437 311.753C713.545 304.149 715.321 296.219 716.445 288.708C718.67 273.845 720.878 259.071 723.825 244.325C715.572 243.482 707.414 243.686 699.144 244.053C701.288 238.798 702.535 233.054 704.061 227.592Q707.633 214.317 712.035 201.293Q713.012 198.425 714.073 195.586Q715.134 192.748 716.279 189.943Q717.423 187.137 718.65 184.366Q719.876 181.595 721.184 178.862Q722.491 176.128 723.879 173.435Q725.267 170.741 726.733 168.089Q728.2 165.438 729.744 162.83Q731.288 160.223 732.908 157.663Q734.528 155.102 736.223 152.59Q737.918 150.078 739.686 147.618Q741.454 145.157 743.294 142.749Q745.134 140.342 747.044 137.99Q748.954 135.637 750.932 133.342Q752.911 131.047 754.956 128.812Q757.002 126.576 759.112 124.402Q761.222 122.227 763.396 120.116C769.95 113.679 777.447 108.209 783.895 101.753L784.216 101.427Z"/>
	<defs>
		<linearGradient id="gradient_1" gradientUnits="userSpaceOnUse" x1="729.07251" y1="264.40491" x2="716.89429" y2="263.5929">
			<stop offset="0" stop-color="#453500"/>
			<stop offset="1" stop-color="#1F2D2C"/>
		</linearGradient>
	</defs>
	<path fill="url(#gradient_1)" d="M729.983 213.197C728.156 211.768 726.424 210.292 725.527 208.089C724.791 206.285 724.91 204.497 725.789 202.765C726.827 200.719 729.098 199.104 731.273 198.477Q731.673 198.366 732.083 198.295Q732.492 198.225 732.906 198.197Q733.321 198.168 733.736 198.181Q734.151 198.195 734.563 198.25Q734.975 198.306 735.379 198.402Q735.783 198.499 736.175 198.636Q736.567 198.773 736.943 198.949Q737.319 199.125 737.676 199.338C739.665 200.541 741.186 202.545 741.733 204.809C742.204 206.758 741.861 208.688 740.711 210.334C738.969 212.827 736.251 213.234 733.449 213.74C731 223.957 729.111 234.302 727.132 244.617C723.989 259.396 721.61 274.278 719.285 289.202C717.887 298.178 716.738 307.26 714.801 316.137C713.45 315.002 713.638 313.385 713.437 311.753C713.545 304.149 715.321 296.219 716.445 288.708C718.67 273.845 720.878 259.071 723.825 244.325C725.562 233.889 727.81 223.549 729.983 213.197Z"/>
	<path fill="#CA192C" d="M730.666 199.908C731.561 199.841 732.436 199.771 733.331 199.887C735.551 200.175 737.846 201.395 739.188 203.212C740.182 204.558 740.571 206.271 740.115 207.903C739.509 210.066 737.922 211.044 736.148 212.177C735.549 212.252 735.563 212.264 734.847 212.271C732.281 212.294 729.684 211.714 727.907 209.729C726.985 208.699 726.437 207.209 726.59 205.819C726.903 202.985 728.596 201.624 730.666 199.908Z"/>
	<path fill="#2A281E" d="M744.264 248.966C745.433 242.757 747.893 236.468 748.433 230.174C748.744 226.557 747.114 222.833 747.841 219.216C748.201 217.427 749.139 215.668 750.812 214.788C752.65 213.821 754.912 214.176 756.744 214.955C759.167 215.986 761.493 218.012 762.411 220.533C762.907 221.897 762.919 223.345 762.266 224.668C761.229 226.77 759.56 227.528 757.426 228.214C757.243 228.273 757.059 228.328 756.875 228.385L753.973 228.449C748.504 232.461 749.103 244.073 746.89 250.379C746.308 253.202 745.68 256.02 745.274 258.875C744.144 258.91 744.187 258.865 743.308 258.138C743.455 255.073 743.904 252.013 744.264 248.966Z"/>
	<path fill="#CA192C" d="M753.973 228.449C753.043 228.118 752.205 227.724 751.364 227.207C749.845 226.272 748.173 224.942 747.939 223.042C747.765 221.632 748.307 220.343 749.213 219.298C750.652 217.637 752.804 216.466 755.025 216.42C756.502 216.389 758.011 216.883 758.948 218.086C759.983 219.415 760.329 221.779 759.952 223.404C759.472 225.477 758.208 226.263 756.529 227.357L756.038 227.67L756.875 228.385L753.973 228.449Z"/>
	<path fill="#FAF9F4" d="M789.189 271.324C804.694 236 845.569 196.998 874.886 172.731C882.039 166.809 890.761 158.57 899.517 155.326C900.721 154.881 901.598 154.76 902.887 154.963C904.214 155.853 904.546 157.182 904.833 158.672C906.454 167.101 905.516 177.514 904.653 186.042Q904.257 189.845 903.74 193.633Q903.223 197.421 902.584 201.191Q901.946 204.961 901.188 208.708Q900.429 212.456 899.55 216.177Q898.672 219.898 897.675 223.589Q896.678 227.28 895.564 230.937Q894.449 234.595 893.218 238.214Q891.987 241.834 890.64 245.413Q889.294 248.991 887.833 252.525Q886.373 256.058 884.8 259.543Q883.227 263.028 881.544 266.461Q879.86 269.893 878.067 273.27Q876.275 276.648 874.375 279.966Q872.475 283.284 870.47 286.539Q868.465 289.794 866.357 292.984Q864.248 296.174 862.039 299.294C855.16 308.961 847.489 319.157 838.554 326.999C838.616 313.971 837.277 308.018 830.43 296.827L836.434 290.127C837.809 290.622 839.232 291.179 840.688 291.357C842.852 291.623 845.236 291.353 846.951 289.892C848.478 288.59 849.158 286.579 849.196 284.618C849.244 282.073 848.241 279.54 846.357 277.809C844.898 276.468 843.043 275.772 841.061 275.868C838.808 275.976 835.855 277.243 834.453 279.053C832.393 281.711 833.763 285.886 834.297 288.888C832.449 290.99 830.306 292.758 828.195 294.587C820.599 287.36 813.671 282.386 803.977 278.301C805.155 276.1 806.573 274.022 807.921 271.922C809.313 272.274 810.82 272.598 812.265 272.593Q812.809 272.587 813.35 272.523Q813.89 272.458 814.42 272.336Q814.951 272.214 815.465 272.036Q815.979 271.857 816.471 271.624Q816.963 271.392 817.427 271.107Q817.891 270.823 818.322 270.49Q818.753 270.158 819.146 269.781Q819.538 269.404 819.888 268.987C820.883 267.798 821.417 266.275 821.146 264.714C820.823 262.85 819.485 261.25 817.996 260.163C816.006 258.709 813.218 257.751 810.742 258.198C809.167 258.482 807.841 259.287 806.932 260.625C804.903 263.61 805.308 267.624 806.046 270.944L801.14 276.928C797.195 274.931 793.269 273.033 789.189 271.324Z"/>
	<path fill="#FAF9F4" d="M622.718 103.58C630.864 111.453 636.414 121.799 642.069 131.513C652.391 149.245 662.162 167.35 669.602 186.507C676.965 205.465 682.391 225.238 689.025 244.48C683.35 244.944 666.333 247.96 662.594 247.51L662.26 246.919C661.179 247.293 660.753 247.275 659.659 246.945L659.532 249.724C651.724 252.494 644.048 255.352 636.573 258.946L635.065 252.532L635.542 252.059C637.228 250.364 639.184 248.387 639.254 245.825C639.293 244.402 638.763 243.327 637.796 242.32C636.299 240.761 633.537 240.262 631.479 240.412C629.779 240.535 627.957 241.127 626.753 242.387C625.731 243.456 624.983 245.673 625.148 247.172C625.535 250.688 631.967 252.666 633.792 255.786C634.56 257.098 634.592 259.405 634.741 260.888C628.458 264.602 623.602 268.656 618.615 273.963C614.153 261.495 608.502 252.59 605.03 238.891C593.693 194.164 598.95 143.367 622.718 103.58Z"/>
	<path fill="#2A281E" d="M659.659 246.945C659.22 244.541 659.126 242.147 656.945 240.641C654.87 239.207 651.394 238.381 650.558 235.713C649.881 233.555 650.88 229.964 652.058 228.132Q652.248 227.833 652.467 227.555Q652.686 227.277 652.931 227.022Q653.177 226.767 653.446 226.537Q653.716 226.308 654.007 226.106Q654.298 225.904 654.607 225.733Q654.917 225.561 655.242 225.421Q655.567 225.281 655.904 225.173Q656.242 225.066 656.588 224.993C659.159 224.447 661.845 225.137 663.985 226.619C665.481 227.655 667.048 229.513 667.317 231.375C667.63 233.541 666.975 235.406 665.596 237.081C664.387 238.549 662.844 239.511 661.249 240.505L662.26 246.919C661.179 247.293 660.753 247.275 659.659 246.945Z"/>
	<path fill="#CA192C" d="M657.698 225.912C657.84 225.917 657.982 225.914 658.123 225.927C660.166 226.117 662.825 226.911 664.028 228.721C665.116 230.358 665.268 232.016 664.751 233.88C663.961 236.732 661.851 238.297 659.431 239.747C659.196 239.736 658.961 239.735 658.727 239.714C656.535 239.521 654.229 238.715 652.873 236.883C651.899 235.566 651.672 233.933 652.016 232.353C652.75 228.973 654.896 227.603 657.698 225.912Z"/>
	<path fill="#CA192C" d="M699.144 244.053C707.414 243.686 715.572 243.482 723.825 244.325C720.878 259.071 718.67 273.845 716.445 288.708C715.321 296.219 713.545 304.149 713.437 311.753C713.638 313.385 713.45 315.002 714.801 316.137C713.087 331.142 710.557 346.001 709.09 361.044L708.051 361.319L707.453 361.691C706.906 360.999 707.007 361.256 706.749 360.453C704.708 354.104 703.907 346.815 702.742 340.246C698.976 318.995 689.517 262.181 699.144 244.053Z"/>
	<path fill="#2A281E" d="M708.051 361.319C708.902 356.359 709.071 351.15 709.484 346.133C710.433 334.588 711.208 323.137 713.437 311.753C713.638 313.385 713.45 315.002 714.801 316.137C713.087 331.142 710.557 346.001 709.09 361.044L708.051 361.319Z"/>
	<path fill="#2A281E" d="M695.096 240.582L696.05 240.797C696.475 241.84 696.862 242.887 697.234 243.95L697.905 243.916C699.339 241.513 705.007 218.715 706.47 214.029Q708.808 206.454 711.606 199.037Q714.404 191.62 717.65 184.388Q720.897 177.156 724.58 170.136Q728.263 163.116 732.369 156.335C742.877 139.338 756.16 124.823 770.776 111.279C774.361 107.957 779.312 102.588 784.216 101.427L783.895 101.753C777.447 108.209 769.95 113.679 763.396 120.116Q761.222 122.227 759.112 124.402Q757.002 126.576 754.956 128.812Q752.911 131.047 750.932 133.342Q748.954 135.637 747.044 137.99Q745.134 140.342 743.294 142.749Q741.454 145.157 739.686 147.618Q737.918 150.078 736.223 152.59Q734.528 155.102 732.908 157.663Q731.288 160.223 729.744 162.83Q728.2 165.438 726.733 168.089Q725.267 170.741 723.879 173.435Q722.491 176.128 721.184 178.862Q719.876 181.595 718.65 184.366Q717.423 187.137 716.279 189.943Q715.134 192.748 714.073 195.586Q713.012 198.425 712.035 201.293Q707.633 214.317 704.061 227.592C702.535 233.054 701.288 238.798 699.144 244.053C689.517 262.181 698.976 318.995 702.742 340.246C703.907 346.815 704.708 354.104 706.749 360.453C707.007 361.256 706.906 360.999 707.453 361.691L708.051 361.319L709.09 361.044C708.317 368.338 709.588 374.89 711.175 381.958C706.548 371.895 704.476 361.199 702.097 350.454C694.849 317.722 688.241 279.782 693.57 246.293C693.462 243.601 693.559 240.999 693.733 238.315L694.64 240.997L695.096 240.582Z"/>
	<path fill="#6A994E" d="M511.695 916.001C502.607 916.392 493.497 916.87 484.402 916.981C365.705 918.429 215.836 893.702 128.014 807.728C92.9693 773.421 74.8113 736.304 63.8557 688.995C60.2118 673.259 57.2819 657.395 57.1004 641.198C73.6828 689.519 113.702 723.916 156.744 748.949C274.165 817.238 446.692 829.062 579.526 812.313C607.507 808.784 635.676 804.348 662.971 797.124C653.891 812.625 629.135 842.627 614.641 852.644C600.039 862.735 582.78 868.042 566.746 875.32C551.839 882.087 538.394 891.404 525.935 901.945C520.911 906.196 515.236 910.371 511.695 916.001Z"/>
	<path fill="#728E2C" d="M662.971 797.124Q677.934 793.104 692.724 788.485Q707.514 783.866 722.106 778.657Q736.698 773.447 751.069 767.655Q765.44 761.863 779.566 755.498C822.842 735.958 861.788 713.995 897.428 682.267C915.423 666.246 931.446 648.93 943.468 627.945C956.323 605.505 964.672 581.683 969.69 556.343C972.483 633.857 952.249 707.797 898.657 765.365C813.694 856.631 637.875 911.542 515.5 915.976Q513.598 916.043 511.695 916.001C515.236 910.371 520.911 906.196 525.935 901.945C538.394 891.404 551.839 882.087 566.746 875.32C582.78 868.042 600.039 862.735 614.641 852.644C629.135 842.627 653.891 812.625 662.971 797.124Z"/>
	<path fill="#386741" d="M916.778 700.912C918.177 700.803 919.844 701.163 921.087 701.811L921.319 702.792C915.176 714.919 874.156 735.061 860.66 741.099C859.368 741.012 858.256 740.943 857.312 739.889C856.524 739.01 856.353 738.159 856.647 737.033C857.162 735.063 861.813 732.608 863.522 731.572C871.173 726.933 879.546 723.36 887.374 718.997C897.443 713.386 906.994 706.988 916.778 700.912Z"/>
	<path fill="#386741" d="M905.58 730.449C906.846 730.744 906.989 730.696 907.81 731.678C907.727 732.318 907.769 732.324 907.44 733.004C906.358 735.239 902.196 737.328 900.137 738.789C890.143 745.881 882.562 752.522 870.164 755.467C869.274 754.983 868.684 754.453 867.933 753.782C867.706 752.727 867.538 752.34 868.076 751.326C868.956 749.669 871.34 748.392 872.92 747.443C878.624 744.02 884.836 741.399 890.729 738.318C895.64 735.75 900.283 732.137 905.58 730.449Z"/>
	<path fill="#386741" d="M839.214 764.479C839.486 764.462 839.758 764.433 840.03 764.429C841.257 764.412 842.249 764.629 843.166 765.468C843.216 767.026 842.621 768.074 841.711 769.324Q841.28 769.907 840.82 770.468Q840.36 771.028 839.872 771.566Q839.385 772.103 838.872 772.615Q838.358 773.128 837.82 773.614Q837.282 774.1 836.72 774.559Q836.159 775.018 835.575 775.448Q834.991 775.879 834.387 776.28Q833.782 776.681 833.159 777.051Q832.535 777.421 831.894 777.76Q831.253 778.099 830.596 778.406Q829.938 778.713 829.267 778.986Q828.595 779.26 827.911 779.5Q827.226 779.74 826.531 779.945Q825.835 780.151 825.13 780.322Q824.425 780.493 823.713 780.628Q823 780.764 822.282 780.864Q822.029 780.813 821.783 780.737Q821.536 780.66 821.298 780.56Q821.061 780.459 820.834 780.336Q820.608 780.212 820.395 780.067Q820.182 779.921 819.984 779.755Q819.787 779.589 819.607 779.404Q819.427 779.219 819.266 779.017Q819.106 778.815 818.966 778.598C818.362 777.663 818.11 776.484 818.532 775.433C820.741 769.936 834.022 766.4 839.214 764.479Z"/>
	<path fill="#386741" d="M839.988 746.697C840.193 746.69 840.397 746.674 840.602 746.676C842.198 746.691 843.409 746.88 844.546 747.985C844.499 748.435 844.521 748.544 844.282 749.006C841.827 753.745 832.022 757.457 827.284 759.534C826.429 759.502 825.955 759.416 825.211 758.923C824.122 758.2 823.266 757.103 823.032 755.795C822.777 754.369 822.943 753.537 823.761 752.338C826.518 748.299 835.502 747.285 839.988 746.697Z"/>
	<path fill="#386741" d="M840.496 786.429C842.111 786.456 843.022 786.629 844.299 787.608C844.424 788.589 844.476 788.899 843.953 789.8C840.623 795.541 830.644 797.92 824.69 799.668C824.44 799.658 824.19 799.656 823.942 799.637C822.296 799.511 821.535 799.239 820.5 798.022L820.791 796.824C825.475 791.579 834.115 789.017 840.496 786.429Z"/>
	<path fill="#386741" d="M871.896 766.981C872.466 766.957 873.179 766.881 873.747 767.024C875.053 767.351 875.628 768.008 876.332 769.074C876.401 770 876.453 770.682 876.01 771.545C874.201 775.071 867.867 776.659 864.437 777.903C863.096 778.017 861.747 778.095 860.747 777.023C859.845 776.057 859.867 775.446 859.926 774.244C861.943 770.269 867.986 768.491 871.896 766.981Z"/>
	<path fill="#FAF9F4" d="M834.31 411.676C835.574 411.423 836.951 411.307 838.237 411.416C844.052 411.911 852.046 417.362 857.114 420.103C888.171 436.901 915.397 455.396 938.166 482.669C906.514 499.007 860.212 491.509 826.622 484.339L825.292 484.017C791.469 475.662 756.096 460.552 732.794 433.779C727.186 427.335 722.774 420.222 718.382 412.935C730.686 414.443 742.963 416.586 755.348 417.314C781.844 418.873 808.153 415.506 834.31 411.676Z"/>
	<path fill="#FAF9F4" d="M953.695 299.713C960.035 299.38 972.956 298.456 977.95 302.834C979.534 304.222 980.044 306.023 980.097 308.075C980.378 319.006 968.827 333.092 961.795 340.502C931.707 372.203 877.226 393.873 835.128 402.709C810.088 407.965 778.941 410.756 753.337 411.333C747.643 411.191 741.965 411.065 736.285 410.604C743.581 409.546 750.97 409.166 758.254 407.975Q761.922 407.346 765.559 406.558Q769.197 405.771 772.796 404.826Q776.396 403.881 779.952 402.782Q783.507 401.682 787.011 400.429Q790.516 399.176 793.963 397.773Q797.409 396.369 800.792 394.817Q804.175 393.266 807.487 391.569Q810.799 389.872 814.035 388.033C828.992 379.473 852.864 358.317 857.207 340.903C857.787 338.578 857.926 335.657 856.451 333.604C853.94 330.11 848.443 329.77 844.52 329.205C848.925 324.912 852.855 319.18 858.253 316.121C876.29 305.899 931.55 300.979 953.695 299.713Z"/>
	<path fill="#FAF9F4" d="M477.519 337.707C494.501 335.431 541.403 341.231 557.77 347.38C569.722 351.871 579.751 360.687 591.083 366.508Q621.333 381.681 652.938 393.782C665.777 398.827 678.445 403.925 691.784 407.521C681.993 410.305 671.633 411.728 661.612 413.495C625.934 419.521 587.848 421.99 552.802 411.165C521.972 401.642 468.12 372.326 452.858 343.315C460.737 339.541 468.951 338.599 477.519 337.707Z"/>
	<path fill="#FAF9F4" d="M711.96 412.325C716.771 416.651 721.464 428.602 726.145 434.464C743.667 456.409 768.895 470.547 793.892 482.333C809.803 506.095 819.898 535.171 826.802 562.72C828.359 568.931 836.416 599.342 833.918 603.507C793.078 586.365 758.184 557.357 735.778 518.899Q733.159 514.317 730.794 509.599Q728.43 504.881 726.327 500.041Q724.224 495.2 722.39 490.252Q720.555 485.304 718.994 480.262Q717.432 475.221 716.149 470.102Q714.866 464.983 713.865 459.801Q712.865 454.619 712.149 449.391Q711.433 444.162 711.004 438.902C710.22 430.028 709.673 421.016 711.96 412.325Z"/>
	<path fill="#FAF9F4" d="M700.804 412.057C701.441 412.023 701.733 412.165 702.318 412.389C702.371 412.936 702.413 413.061 702.297 413.679C701.395 418.486 697.501 424.371 695.103 428.714C680.801 454.621 663.623 474.296 639.94 492.165C621.061 506.409 566.856 538.214 543.498 534.929C542.14 534.08 541.2 533.155 540.821 531.55C538.41 521.359 552.704 491.701 558.369 482.669C569.902 464.282 586.048 449.394 603.053 436.157C606.71 433.31 610.93 429.509 615.265 427.828C621.541 425.394 630.296 426.219 637.087 425.452C647.116 424.32 657.222 422.864 667.154 421.059C672.687 420.053 678.309 418.899 683.694 417.28C689.409 415.563 694.983 413.403 700.804 412.057Z"/>
	<path fill="#FAF9F4" d="M580.708 295.401C590.139 300.294 602.066 314.492 610.287 322.237C623.862 335.026 637.664 347.89 651.779 360.074Q667.496 373.511 683.821 386.201C691.027 391.777 701.141 398.147 706.981 405.025C695.586 405.503 665.437 393.342 654.28 388.101C646.972 384.668 640.59 379.53 634.241 374.605C605.007 351.932 592.877 329.257 580.708 295.401Z"/>
	<path fill="#FAF9F4" d="M847.352 335.713C848.724 335.461 849.969 335.568 851.318 335.933C852.212 336.175 852.128 336.413 852.58 337.155C852.954 343.504 840.958 357.497 836.548 362.627C831.655 368.319 826.329 373.792 820.257 378.242C793.28 398.017 754.132 403.447 721.586 405.931C718.783 405.963 715.963 405.833 713.16 405.765C739.549 399.027 762.217 386.844 785.871 373.692C798.192 366.841 810.774 360.057 821.948 351.393C827.282 347.258 831.947 341.919 836.829 337.249C840.291 336.454 843.828 336.121 847.352 335.713Z"/>
</svg>
